<svg width="40" height="40" viewBox="0 0 40 40" fill="none" xmlns="http://www.w3.org/2000/svg">
<path d="M36.6663 15V25C36.6663 29.1667 35.833 32.0833 33.9664 33.9667L23.333 23.3333L36.2164 10.45C36.5164 11.7667 36.6663 13.2667 36.6663 15Z" stroke="black" stroke-width="1.5" stroke-linecap="round" stroke-linejoin="round"/>
<path d="M36.2164 10.45L10.4497 36.2167C5.43299 35.0667 3.33301 31.6 3.33301 25V15C3.33301 6.66668 6.66634 3.33334 14.9997 3.33334H24.9997C31.5997 3.33334 35.0664 5.43335 36.2164 10.45Z" stroke="black" stroke-width="1.5" stroke-linecap="round" stroke-linejoin="round"/>
<path d="M33.9669 33.9667C32.0836 35.8334 29.1669 36.6667 25.0002 36.6667H15.0002C13.2669 36.6667 11.7669 36.5167 10.4502 36.2167L23.3335 23.3333L33.9669 33.9667Z" stroke="black" stroke-width="1.5" stroke-linecap="round" stroke-linejoin="round"/>
<path d="M10.4004 13.3C11.5338 8.41668 18.8671 8.41668 20.0005 13.3C20.6505 16.1667 18.8504 18.6 17.2671 20.1C16.1171 21.2 14.3005 21.2 13.1338 20.1C11.5505 18.6 9.73377 16.1667 10.4004 13.3Z" stroke="black" stroke-width="1.5"/>
<path d="M15.1582 14.5H15.1731" stroke="black" stroke-width="2" stroke-linecap="round" stroke-linejoin="round"/>
</svg>
