<svg width="19" height="20" viewBox="0 0 19 20" fill="none" xmlns="http://www.w3.org/2000/svg">
<path d="M18.1634 19.5019L16.669 5.57908C16.6441 5.35492 16.4448 5.18057 16.2207 5.18057H13.456V4.33375C13.456 1.94271 11.5133 0 9.12229 0C6.73126 0 4.78855 1.94271 4.78855 4.33375V5.18057H1.94919C1.72503 5.18057 1.52578 5.35492 1.50087 5.57908L0.00647895 19.5019C-0.0184277 19.6264 0.0313855 19.7509 0.106105 19.8506C0.180825 19.9502 0.305358 20 0.429891 20H17.74C17.8645 20 17.989 19.9502 18.0638 19.8506C18.1385 19.7509 18.1883 19.6264 18.1634 19.5019ZM13.0077 7.69614C13.2319 7.69614 13.4062 7.87049 13.4062 8.09464C13.4062 8.3188 13.2319 8.49315 13.0077 8.49315C12.7836 8.49315 12.6092 8.3188 12.6092 8.09464C12.6092 7.87049 12.7836 7.69614 13.0077 7.69614ZM5.68518 4.33375C5.68518 2.44085 7.22939 0.896638 9.12229 0.896638C11.0152 0.896638 12.5594 2.44085 12.5594 4.33375V5.18057H5.68518V4.33375ZM5.23686 7.69614C5.46102 7.69614 5.63537 7.87049 5.63537 8.09464C5.63537 8.3188 5.46102 8.49315 5.23686 8.49315C5.01271 8.49315 4.83836 8.3188 4.83836 8.09464C4.83836 7.87049 5.01271 7.69614 5.23686 7.69614ZM0.95293 19.0785L2.3477 6.0523H4.78855V6.87422C4.29041 7.04857 3.94172 7.52179 3.94172 8.06974C3.94172 8.76712 4.51457 9.33997 5.21196 9.33997C5.90934 9.33997 6.48219 8.76712 6.48219 8.06974C6.48219 7.52179 6.1335 7.04857 5.63537 6.87422V6.0523H12.5096V6.87422C12.0115 7.04857 11.6628 7.52179 11.6628 8.06974C11.6628 8.76712 12.2356 9.33997 12.933 9.33997C13.6304 9.33997 14.2032 8.76712 14.2032 8.06974C14.2032 7.52179 13.8545 7.04857 13.3564 6.87422V6.0523H15.8969L17.2917 19.0785H0.95293Z" fill="black"/>
</svg>
