<svg width="150" height="150" viewBox="0 0 150 150" fill="none" xmlns="http://www.w3.org/2000/svg">
<path d="M75 0C56.0523 -2.25949e-07 37.8068 7.17169 23.9304 20.0737C10.0541 32.9757 1.57535 50.6518 0.198323 69.5494C-1.1787 88.447 4.64803 107.165 16.5075 121.943C28.3669 136.72 45.38 146.461 64.1276 149.208C82.8752 151.955 101.968 147.504 117.568 136.749C133.168 125.995 144.119 109.735 148.221 91.2367C152.323 72.7383 149.272 53.3729 139.68 37.0325C130.088 20.692 114.666 8.58773 96.5151 3.15224L95.737 5.75061C113.232 10.9895 128.096 22.6561 137.341 38.4056C146.586 54.1551 149.527 72.8201 145.573 90.6495C141.62 108.479 131.064 124.151 116.028 134.516C100.992 144.881 82.5904 149.171 64.5208 146.524C46.4512 143.877 30.0534 134.488 18.6228 120.245C7.1923 106.002 1.57629 87.9607 2.90352 69.7465C4.23074 51.5323 12.4028 34.4955 25.7773 22.0601C39.1519 9.62469 56.7375 2.71236 75 2.71236V0Z" fill="#299E0C"/>
<rect x="38" y="83" width="5" height="40" transform="rotate(-45 38 83)" fill="#299E0C"/>
<rect x="62.7485" y="107.749" width="64" height="5" transform="rotate(-45 62.7485 107.749)" fill="#299E0C"/>
</svg>
