<svg width="40" height="40" viewBox="0 0 40 40" fill="none" xmlns="http://www.w3.org/2000/svg">
<path d="M30.067 22.5833C29.367 23.2667 28.967 24.25 29.067 25.3C29.217 27.1 30.867 28.4167 32.667 28.4167H35.8337V30.4C35.8337 33.85 33.017 36.6667 29.567 36.6667H10.4337C6.98366 36.6667 4.16699 33.85 4.16699 30.4V19.1834C4.16699 15.7334 6.98366 12.9167 10.4337 12.9167H29.567C33.017 12.9167 35.8337 15.7334 35.8337 19.1834V21.5834H32.467C31.5337 21.5834 30.6837 21.95 30.067 22.5833Z" stroke="#555555" stroke-width="1.5" stroke-linecap="round" stroke-linejoin="round"/>
<path d="M4.16699 20.6833V13.0667C4.16699 11.0834 5.38366 9.31668 7.23366 8.61668L20.467 3.61668C22.5337 2.83334 24.7503 4.36672 24.7503 6.58339V12.9167" stroke="#555555" stroke-width="1.5" stroke-linecap="round" stroke-linejoin="round"/>
<path d="M37.5983 23.2836V26.717C37.5983 27.6337 36.865 28.3836 35.9317 28.4169H32.665C30.865 28.4169 29.215 27.1003 29.065 25.3003C28.965 24.2503 29.365 23.2669 30.065 22.5836C30.6817 21.9503 31.5317 21.5836 32.465 21.5836H35.9317C36.865 21.617 37.5983 22.3669 37.5983 23.2836Z" stroke="#555555" stroke-width="1.5" stroke-linecap="round" stroke-linejoin="round"/>
<path d="M11.667 20H23.3337" stroke="#555555" stroke-width="1.5" stroke-linecap="round" stroke-linejoin="round"/>
</svg>
